<svg aria-roledescription="flowchart-v2" role="graphics-document document" viewBox="-7.5 -8 786.5999755859375 586.854736328125" style="max-width: 100%;" xmlns="http://www.w3.org/2000/svg" width="1600px" id="graph-div" height="1277px" xmlns:xlink="http://www.w3.org/1999/xlink"><style>@import url("https://cdnjs.cloudflare.com/ajax/libs/font-awesome/6.4.0/css/all.min.css");'</style><style>#graph-div{font-family:Helvetica;font-size:16px;fill:#333;}#graph-div .error-icon{fill:#552222;}#graph-div .error-text{fill:#552222;stroke:#552222;}#graph-div .edge-thickness-normal{stroke-width:2px;}#graph-div .edge-thickness-thick{stroke-width:3.5px;}#graph-div .edge-pattern-solid{stroke-dasharray:0;}#graph-div .edge-pattern-dashed{stroke-dasharray:3;}#graph-div .edge-pattern-dotted{stroke-dasharray:2;}#graph-div .marker{fill:#333333;stroke:#333333;}#graph-div .marker.cross{stroke:#333333;}#graph-div svg{font-family:Helvetica;font-size:16px;}#graph-div .label{font-family:Helvetica;color:#333;}#graph-div .cluster-label text{fill:#333;}#graph-div .cluster-label span,#graph-div p{color:#333;}#graph-div .label text,#graph-div span,#graph-div p{fill:#333;color:#333;}#graph-div .node rect,#graph-div .node circle,#graph-div .node ellipse,#graph-div .node polygon,#graph-div .node path{fill:#ECECFF;stroke:#9370DB;stroke-width:1px;}#graph-div .flowchart-label text{text-anchor:middle;}#graph-div .node .label{text-align:center;}#graph-div .node.clickable{cursor:pointer;}#graph-div .arrowheadPath{fill:#333333;}#graph-div .edgePath .path{stroke:#333333;stroke-width:2.0px;}#graph-div .flowchart-link{stroke:#333333;fill:none;}#graph-div .edgeLabel{background-color:#e8e8e8;text-align:center;}#graph-div .edgeLabel rect{opacity:0.5;background-color:#e8e8e8;fill:#e8e8e8;}#graph-div .cluster rect{fill:#ffffde;stroke:#aaaa33;stroke-width:1px;}#graph-div .cluster text{fill:#333;}#graph-div .cluster span,#graph-div p{color:#333;}#graph-div div.mermaidTooltip{position:absolute;text-align:center;max-width:200px;padding:2px;font-family:Helvetica;font-size:12px;background:hsl(80, 100%, 96.2745098039%);border:1px solid #aaaa33;border-radius:2px;pointer-events:none;z-index:100;}#graph-div .flowchartTitleText{text-anchor:middle;font-size:18px;fill:#333;}#graph-div :root{--mermaid-font-family:"trebuchet ms",verdana,arial,sans-serif;}#graph-div .outcome_yes rect{fill:#F7FBFF!important;stroke:#860967!important;}#graph-div .outcome_yes polygon{fill:#F7FBFF!important;stroke:#860967!important;}#graph-div .outcome_yes ellipse{fill:#F7FBFF!important;stroke:#860967!important;}#graph-div .outcome_yes circle{fill:#F7FBFF!important;stroke:#860967!important;}#graph-div .outcome_yes path{fill:#F7FBFF!important;stroke:#860967!important;}#graph-div .outcome_no rect{fill:#F7FBFF!important;stroke:#0F2A4B!important;}#graph-div .outcome_no polygon{fill:#F7FBFF!important;stroke:#0F2A4B!important;}#graph-div .outcome_no ellipse{fill:#F7FBFF!important;stroke:#0F2A4B!important;}#graph-div .outcome_no circle{fill:#F7FBFF!important;stroke:#0F2A4B!important;}#graph-div .outcome_no path{fill:#F7FBFF!important;stroke:#0F2A4B!important;}#graph-div .decision rect{fill:#FFFFFF!important;stroke:#000000!important;}#graph-div .decision polygon{fill:#FFFFFF!important;stroke:#000000!important;}#graph-div .decision ellipse{fill:#FFFFFF!important;stroke:#000000!important;}#graph-div .decision circle{fill:#FFFFFF!important;stroke:#000000!important;}#graph-div .decision path{fill:#FFFFFF!important;stroke:#000000!important;}</style><g><marker orient="auto" markerHeight="12" markerWidth="12" markerUnits="userSpaceOnUse" refY="5" refX="10" viewBox="0 0 12 20" class="marker flowchart" id="flowchart-pointEnd"><path style="stroke-width: 1px; stroke-dasharray: 1px, 0px;" class="arrowMarkerPath" d="M 0 0 L 10 5 L 0 10 z"></path></marker><marker orient="auto" markerHeight="12" markerWidth="12" markerUnits="userSpaceOnUse" refY="5" refX="0" viewBox="0 0 10 10" class="marker flowchart" id="flowchart-pointStart"><path style="stroke-width: 1px; stroke-dasharray: 1px, 0px;" class="arrowMarkerPath" d="M 0 5 L 10 10 L 10 0 z"></path></marker><marker orient="auto" markerHeight="11" markerWidth="11" markerUnits="userSpaceOnUse" refY="5" refX="11" viewBox="0 0 10 10" class="marker flowchart" id="flowchart-circleEnd"><circle style="stroke-width: 1px; stroke-dasharray: 1px, 0px;" class="arrowMarkerPath" r="5" cy="5" cx="5"></circle></marker><marker orient="auto" markerHeight="11" markerWidth="11" markerUnits="userSpaceOnUse" refY="5" refX="-1" viewBox="0 0 10 10" class="marker flowchart" id="flowchart-circleStart"><circle style="stroke-width: 1px; stroke-dasharray: 1px, 0px;" class="arrowMarkerPath" r="5" cy="5" cx="5"></circle></marker><marker orient="auto" markerHeight="11" markerWidth="11" markerUnits="userSpaceOnUse" refY="5.2" refX="12" viewBox="0 0 11 11" class="marker cross flowchart" id="flowchart-crossEnd"><path style="stroke-width: 2px; stroke-dasharray: 1px, 0px;" class="arrowMarkerPath" d="M 1,1 l 9,9 M 10,1 l -9,9"></path></marker><marker orient="auto" markerHeight="11" markerWidth="11" markerUnits="userSpaceOnUse" refY="5.2" refX="-1" viewBox="0 0 11 11" class="marker cross flowchart" id="flowchart-crossStart"><path style="stroke-width: 2px; stroke-dasharray: 1px, 0px;" class="arrowMarkerPath" d="M 1,1 l 9,9 M 10,1 l -9,9"></path></marker><g class="root"><g class="clusters"></g><g class="edgePaths"></g><g class="edgeLabels"></g><g class="nodes"><g transform="translate(-7.5, -8)" class="root"><g class="clusters"><g id="invis1" class="cluster default flowchart-label"><rect height="570.8547515869141" width="770.5999956130981" y="8" x="8" ry="0" rx="0" style="fill:#FFFFFF;stroke:#FFFFFF;"></rect><g transform="translate(393.2999978065491, 8)" class="cluster-label"><text style="fill:#FFFFFF;"><tspan class="row" x="0" dy="1em" xml:space="preserve">invis1</tspan></text></g></g><g id="IDSA" class="cluster default flowchart-label"><rect height="81.5" width="198.54999923706055" y="243.35475158691406" x="69.8708324432373" ry="0" rx="0" style="fill:#CCCCCC;stroke:#FFFFFF;"></rect><g transform="translate(169.14583206176758, 243.35475158691406)" class="cluster-label"><text style=""><tspan class="row" x="0" dy="1em" xml:space="preserve">IDSA</tspan></text></g></g><g id="All-cause" class="cluster default flowchart-label"><rect height="81.5" width="198.54999923706055" y="243.35475158691406" x="443.78749656677246" ry="0" rx="0" style="fill:#CCCCCC;stroke:#FFFFFF;"></rect><g transform="translate(543.0624961853027, 243.35475158691406)" class="cluster-label"><text style=""><tspan class="row" x="0" dy="1em" xml:space="preserve">All-cause</tspan></text></g></g><g id="attrib" class="cluster default flowchart-label"><rect height="81.5" width="198.54999923706055" y="472.35475158691406" x="399.1499967575073" ry="0" rx="0" style="fill:#CCCCCC;stroke:#FFFFFF;"></rect><g transform="translate(498.4249963760376, 472.35475158691406)" class="cluster-label"><text style=""><tspan class="row" x="0" dy="1em" xml:space="preserve">Attributable</tspan></text></g></g></g><g class="edgePaths"><path marker-end="url(#flowchart-pointEnd)" style="fill:none;" class="edge-thickness-normal edge-pattern-solid flowchart-link LS-idsa_lab LE-yes_idsa" id="L-idsa_lab-yes_idsa-0" d="M149.31185722351074,193.85475158691406L145.4133529663086,197.9380849202474C141.51484870910645,202.02141825358072,133.71784019470215,210.1880849202474,129.8193359375,218.4380849202474C125.92083168029785,226.6880849202474,125.92083168029785,235.02141825358072,125.92083168029785,243.35475158691406C125.92083168029785,251.6880849202474,125.92083168029785,260.02141825358075,125.92083168029785,264.1880849202474L125.92083168029785,268.35475158691406"></path><path marker-end="url(#flowchart-pointEnd)" style="fill:none;" class="edge-thickness-normal edge-pattern-solid flowchart-link LS-idsa_lab LE-no_idsa" id="L-idsa_lab-no_idsa-0" d="M192.80480575561523,193.85475158691406L196.53664334615073,197.9380849202474C200.2684809366862,202.02141825358072,207.73215611775717,210.1880849202474,211.46399370829263,218.4380849202474C215.19583129882812,226.6880849202474,215.19583129882812,235.02141825358072,215.19583129882812,243.35475158691406C215.19583129882812,251.6880849202474,215.19583129882812,260.02141825358075,215.19583129882812,264.1880849202474L215.19583129882812,268.35475158691406"></path><path marker-end="url(#flowchart-pointEnd)" style="fill:none;" class="edge-thickness-normal edge-pattern-solid flowchart-link LS-unattrib LE-yes_un" id="L-unattrib-yes_un-0" d="M523.2285213470459,193.854751586914L519.3300170898438,197.93808492024735C515.4315128326416,202.0214182535807,507.6345043182373,210.1880849202474,503.73600006103516,218.4380849202474C499.837495803833,226.6880849202474,499.837495803833,235.02141825358072,499.837495803833,243.35475158691406C499.837495803833,251.6880849202474,499.837495803833,260.02141825358075,499.837495803833,264.1880849202474L499.837495803833,268.35475158691406"></path><path marker-end="url(#flowchart-pointEnd)" style="fill:none;" class="edge-thickness-normal edge-pattern-solid flowchart-link LS-unattrib LE-no_un" id="L-unattrib-no_un-0" d="M566.7214698791504,193.854751586914L570.4533074696859,197.93808492024735C574.1851450602213,202.0214182535807,581.6488202412924,210.1880849202474,585.3806578318278,218.4380849202474C589.1124954223633,226.6880849202474,589.1124954223633,235.02141825358072,589.1124954223633,243.35475158691406C589.1124954223633,251.6880849202474,589.1124954223633,260.02141825358075,589.1124954223633,264.1880849202474L589.1124954223633,268.35475158691406"></path><path marker-end="url(#flowchart-pointEnd)" style="fill:none;" class="edge-thickness-normal edge-pattern-solid flowchart-link LS-chart LE-yes_at" id="L-chart-yes_at-0" d="M478.59102153778053,422.85475158691395L474.69251728057844,426.9380849202473C470.7940130233763,431.02141825358063,462.9970045089721,439.1880849202474,459.09850025177,447.4380849202474C455.19999599456787,455.6880849202474,455.19999599456787,464.02141825358075,455.19999599456787,472.35475158691406C455.19999599456787,480.6880849202474,455.19999599456787,489.02141825358075,455.19999599456787,493.1880849202474L455.19999599456787,497.35475158691406"></path><path marker-end="url(#flowchart-pointEnd)" style="fill:none;" class="edge-thickness-normal edge-pattern-solid flowchart-link LS-chart LE-no_at" id="L-chart-no_at-0" d="M522.0839700698855,422.85475158691395L525.8158076604209,426.9380849202473C529.5476452509564,431.02141825358063,537.0113204320272,439.1880849202474,540.7431580225626,447.4380849202474C544.4749956130981,455.6880849202474,544.4749956130981,464.02141825358075,544.4749956130981,472.35475158691406C544.4749956130981,480.6880849202474,544.4749956130981,489.02141825358075,544.4749956130981,493.1880849202474L544.4749956130981,497.35475158691406"></path><path marker-end="url(#flowchart-pointEnd)" style="fill:none;" class="edge-thickness-normal edge-pattern-solid flowchart-link LS-cases LE-unattrib" id="L-cases-unattrib-0" d="M402.4166650772095,77.97900107427368L426.0930534998576,85.12495949304709C449.7694419225057,92.27091791182049,497.12221876780194,106.56283474936727,520.8819405237833,117.95879316814067C544.6416622797648,129.35475158691406,544.8083289464315,137.85475158691406,544.8916622797648,142.10475158691406L544.9749956130981,146.35475158691406"></path><path marker-end="url(#flowchart-pointEnd)" style="fill:none;" class="edge-thickness-normal edge-pattern-solid flowchart-link LS-cases LE-idsa_lab" id="L-cases-idsa_lab-0" d="M312.61666202545166,77.97900107427368L288.94027360280353,85.12495949304709C265.26388518015546,92.27091791182049,217.91110833485922,106.56283474936727,194.31805324554443,117.95879316814067C170.72499815622965,129.35475158691406,170.89166482289633,137.85475158691406,170.97499815622965,142.10475158691406L171.058331489563,146.35475158691406"></path><path marker-end="url(#flowchart-pointEnd)" style="fill:none;" class="edge-thickness-normal edge-pattern-solid flowchart-link LS-All-cause LE-chart" id="L-All-cause-chart-0" d="M499.837495803833,324.85475158691406L499.837495803833,329.02141825358075C499.837495803833,333.1880849202474,499.837495803833,341.52141825358075,499.9208291371663,349.9380849202474C500.0041624704997,358.35475158691406,500.1708291371663,366.85475158691406,500.2541624704997,371.10475158691406L500.337495803833,375.35475158691406"></path></g><g class="edgeLabels"><g class="edgeLabel"><g transform="translate(0, 0)" class="label"><rect height="0" width="0" ry="0" rx="0"></rect><text style=""><tspan class="row" x="0" dy="1em" xml:space="preserve"></tspan></text></g></g><g class="edgeLabel"><g transform="translate(0, 0)" class="label"><rect height="0" width="0" ry="0" rx="0"></rect><text style=""><tspan class="row" x="0" dy="1em" xml:space="preserve"></tspan></text></g></g><g class="edgeLabel"><g transform="translate(0, 0)" class="label"><rect height="0" width="0" ry="0" rx="0"></rect><text style=""><tspan class="row" x="0" dy="1em" xml:space="preserve"></tspan></text></g></g><g class="edgeLabel"><g transform="translate(0, 0)" class="label"><rect height="0" width="0" ry="0" rx="0"></rect><text style=""><tspan class="row" x="0" dy="1em" xml:space="preserve"></tspan></text></g></g><g class="edgeLabel"><g transform="translate(0, 0)" class="label"><rect height="0" width="0" ry="0" rx="0"></rect><text style=""><tspan class="row" x="0" dy="1em" xml:space="preserve"></tspan></text></g></g><g class="edgeLabel"><g transform="translate(0, 0)" class="label"><rect height="0" width="0" ry="0" rx="0"></rect><text style=""><tspan class="row" x="0" dy="1em" xml:space="preserve"></tspan></text></g></g><g class="edgeLabel"><g transform="translate(0, 0)" class="label"><rect height="0" width="0" ry="0" rx="0"></rect><text style=""><tspan class="row" x="0" dy="1em" xml:space="preserve"></tspan></text></g></g><g class="edgeLabel"><g transform="translate(0, 0)" class="label"><rect height="0" width="0" ry="0" rx="0"></rect><text style=""><tspan class="row" x="0" dy="1em" xml:space="preserve"></tspan></text></g></g><g class="edgeLabel"><g transform="translate(0, 0)" class="label"><rect height="0" width="0" ry="0" rx="0"></rect><text style=""><tspan class="row" x="0" dy="1em" xml:space="preserve"></tspan></text></g></g></g><g class="nodes"><g transform="translate(357.51666355133057, 64.42737579345703)" id="flowchart-cases-446" class="node default decision flowchart-label"><path transform="translate(-44.900001525878906,-31.42737461171959)" d="M 0,10.451583074479725 a 44.900001525878906,10.451583074479725 0,0,0 89.80000305175781 0 a 44.900001525878906,10.451583074479725 0,0,0 -89.80000305175781 0 l 0,41.95158307447973 a 44.900001525878906,10.451583074479725 0,0,0 89.80000305175781 0 l 0,-41.95158307447973" style=""></path><g transform="translate(0, -8.25)" style="" class="label"><rect></rect><text style=""><tspan class="row" x="0" dy="1em" xml:space="preserve">CDI cases</tspan></text></g></g><g transform="translate(170.558331489563, 169.60475158691406)" id="flowchart-idsa_lab-447" class="node default decision flowchart-label"><polygon style="" transform="translate(-124.79166412353516,23.75)" class="label-container" points="11.875,0 237.7083282470703,0 249.5833282470703,-23.75 237.7083282470703,-47.5 11.875,-47.5 0,-23.75"></polygon><g transform="translate(0, -16.25)" style="" class="label"><rect></rect><text style=""><tspan class="row" x="0" dy="1em" xml:space="preserve">Serum creatinine ≥ 1.5 mg/dL</tspan><tspan class="row" x="0" dy="1em" xml:space="preserve">&amp; WBC count ≥ 15 k/μL</tspan></text></g></g><g transform="translate(125.92083168029785, 284.10475158691406)" id="flowchart-yes_idsa-449" class="node default outcome_yes flowchart-label"><rect height="31.5" width="42.10000038146973" y="-15.75" x="-21.050000190734863" ry="0" rx="0" style="" class="basic label-container"></rect><g transform="translate(0, -8.25)" style="" class="label"><rect></rect><text style=""><tspan class="row" x="0" dy="1em" xml:space="preserve">Yes</tspan></text></g></g><g transform="translate(215.19583129882812, 284.10475158691406)" id="flowchart-no_idsa-451" class="node default outcome_no flowchart-label"><rect height="31.5" width="36.45000076293945" y="-15.75" x="-18.225000381469727" ry="0" rx="0" style="" class="basic label-container"></rect><g transform="translate(0, -8.25)" style="" class="label"><rect></rect><text style=""><tspan class="row" x="0" dy="1em" xml:space="preserve">No</tspan></text></g></g><g transform="translate(544.4749956130981, 169.60475158691406)" id="flowchart-unattrib-454" class="node default decision flowchart-label"><polygon style="" transform="translate(-199.125,23.75)" class="label-container" points="11.875,0 386.375,0 398.25,-23.75 386.375,-47.5 11.875,-47.5 0,-23.75"></polygon><g transform="translate(0, -16.25)" style="" class="label"><rect></rect><text style=""><tspan class="row" x="0" dy="1em" xml:space="preserve">One of 3 adverse outcomes occurs within 30 days:</tspan><tspan class="row" x="0" dy="1em" xml:space="preserve">ICU admission, colectomy, or death</tspan></text></g></g><g transform="translate(499.837495803833, 284.10475158691406)" id="flowchart-yes_un-456" class="node default outcome_yes flowchart-label"><rect height="31.5" width="42.10000038146973" y="-15.75" x="-21.050000190734863" ry="0" rx="0" style="" class="basic label-container"></rect><g transform="translate(0, -8.25)" style="" class="label"><rect></rect><text style=""><tspan class="row" x="0" dy="1em" xml:space="preserve">Yes</tspan></text></g></g><g transform="translate(589.1124954223633, 284.10475158691406)" id="flowchart-no_un-458" class="node default outcome_no flowchart-label"><rect height="31.5" width="36.45000076293945" y="-15.75" x="-18.225000381469727" ry="0" rx="0" style="" class="basic label-container"></rect><g transform="translate(0, -8.25)" style="" class="label"><rect></rect><text style=""><tspan class="row" x="0" dy="1em" xml:space="preserve">No</tspan></text></g></g><g transform="translate(499.837495803833, 398.60475158691406)" id="flowchart-chart-462" class="node default decision flowchart-label"><polygon style="" transform="translate(-191.125,23.75)" class="label-container" points="11.875,0 370.375,0 382.25,-23.75 370.375,-47.5 11.875,-47.5 0,-23.75"></polygon><g transform="translate(0, -16.25)" style="" class="label"><rect></rect><text style=""><tspan class="row" x="0" dy="1em" xml:space="preserve">physician chart review:</tspan><tspan class="row" x="0" dy="1em" xml:space="preserve">the adverse outcome was attributable to the CDI</tspan></text></g></g><g transform="translate(455.19999599456787, 513.1047515869141)" id="flowchart-yes_at-465" class="node default outcome_yes flowchart-label"><rect height="31.5" width="42.10000038146973" y="-15.75" x="-21.050000190734863" ry="0" rx="0" style="" class="basic label-container"></rect><g transform="translate(0, -8.25)" style="" class="label"><rect></rect><text style=""><tspan class="row" x="0" dy="1em" xml:space="preserve">Yes</tspan></text></g></g><g transform="translate(544.4749956130981, 513.1047515869141)" id="flowchart-no_at-467" class="node default outcome_no flowchart-label"><rect height="31.5" width="36.45000076293945" y="-15.75" x="-18.225000381469727" ry="0" rx="0" style="" class="basic label-container"></rect><g transform="translate(0, -8.25)" style="" class="label"><rect></rect><text style=""><tspan class="row" x="0" dy="1em" xml:space="preserve">No</tspan></text></g></g></g></g></g></g></g></svg>