<svg aria-roledescription="flowchart-v2" role="graphics-document document" viewBox="-7.5 -8 788.90625 595.1365356445312" style="max-width: 788.906px; background-color: white;" xmlns:xlink="http://www.w3.org/1999/xlink" xmlns="http://www.w3.org/2000/svg" width="100%" id="mermaid-1683912971840"><style>#mermaid-1683912971840{font-family:"trebuchet ms",verdana,arial,sans-serif;font-size:16px;fill:#333;}#mermaid-1683912971840 .error-icon{fill:#552222;}#mermaid-1683912971840 .error-text{fill:#552222;stroke:#552222;}#mermaid-1683912971840 .edge-thickness-normal{stroke-width:2px;}#mermaid-1683912971840 .edge-thickness-thick{stroke-width:3.5px;}#mermaid-1683912971840 .edge-pattern-solid{stroke-dasharray:0;}#mermaid-1683912971840 .edge-pattern-dashed{stroke-dasharray:3;}#mermaid-1683912971840 .edge-pattern-dotted{stroke-dasharray:2;}#mermaid-1683912971840 .marker{fill:#333333;stroke:#333333;}#mermaid-1683912971840 .marker.cross{stroke:#333333;}#mermaid-1683912971840 svg{font-family:"trebuchet ms",verdana,arial,sans-serif;font-size:16px;}#mermaid-1683912971840 .label{font-family:"trebuchet ms",verdana,arial,sans-serif;color:#333;}#mermaid-1683912971840 .cluster-label text{fill:#333;}#mermaid-1683912971840 .cluster-label span,#mermaid-1683912971840 p{color:#333;}#mermaid-1683912971840 .label text,#mermaid-1683912971840 span,#mermaid-1683912971840 p{fill:#333;color:#333;}#mermaid-1683912971840 .node rect,#mermaid-1683912971840 .node circle,#mermaid-1683912971840 .node ellipse,#mermaid-1683912971840 .node polygon,#mermaid-1683912971840 .node path{fill:#ECECFF;stroke:#9370DB;stroke-width:1px;}#mermaid-1683912971840 .flowchart-label text{text-anchor:middle;}#mermaid-1683912971840 .node .label{text-align:center;}#mermaid-1683912971840 .node.clickable{cursor:pointer;}#mermaid-1683912971840 .arrowheadPath{fill:#333333;}#mermaid-1683912971840 .edgePath .path{stroke:#333333;stroke-width:2.0px;}#mermaid-1683912971840 .flowchart-link{stroke:#333333;fill:none;}#mermaid-1683912971840 .edgeLabel{background-color:#e8e8e8;text-align:center;}#mermaid-1683912971840 .edgeLabel rect{opacity:0.5;background-color:#e8e8e8;fill:#e8e8e8;}#mermaid-1683912971840 .cluster rect{fill:#ffffde;stroke:#aaaa33;stroke-width:1px;}#mermaid-1683912971840 .cluster text{fill:#333;}#mermaid-1683912971840 .cluster span,#mermaid-1683912971840 p{color:#333;}#mermaid-1683912971840 div.mermaidTooltip{position:absolute;text-align:center;max-width:200px;padding:2px;font-family:"trebuchet ms",verdana,arial,sans-serif;font-size:12px;background:hsl(80, 100%, 96.2745098039%);border:1px solid #aaaa33;border-radius:2px;pointer-events:none;z-index:100;}#mermaid-1683912971840 .flowchartTitleText{text-anchor:middle;font-size:18px;fill:#333;}#mermaid-1683912971840 :root{--mermaid-font-family:"trebuchet ms",verdana,arial,sans-serif;}#mermaid-1683912971840 .outcome rect{fill:#F7FBFF!important;}#mermaid-1683912971840 .outcome polygon{fill:#F7FBFF!important;}#mermaid-1683912971840 .outcome ellipse{fill:#F7FBFF!important;}#mermaid-1683912971840 .outcome circle{fill:#F7FBFF!important;}#mermaid-1683912971840 .outcome path{fill:#F7FBFF!important;}</style><g><marker orient="auto" markerHeight="12" markerWidth="12" markerUnits="userSpaceOnUse" refY="5" refX="10" viewBox="0 0 12 20" class="marker flowchart" id="flowchart-pointEnd"><path style="stroke-width: 1; stroke-dasharray: 1, 0;" class="arrowMarkerPath" d="M 0 0 L 10 5 L 0 10 z"/></marker><marker orient="auto" markerHeight="12" markerWidth="12" markerUnits="userSpaceOnUse" refY="5" refX="0" viewBox="0 0 10 10" class="marker flowchart" id="flowchart-pointStart"><path style="stroke-width: 1; stroke-dasharray: 1, 0;" class="arrowMarkerPath" d="M 0 5 L 10 10 L 10 0 z"/></marker><marker orient="auto" markerHeight="11" markerWidth="11" markerUnits="userSpaceOnUse" refY="5" refX="11" viewBox="0 0 10 10" class="marker flowchart" id="flowchart-circleEnd"><circle style="stroke-width: 1; stroke-dasharray: 1, 0;" class="arrowMarkerPath" r="5" cy="5" cx="5"/></marker><marker orient="auto" markerHeight="11" markerWidth="11" markerUnits="userSpaceOnUse" refY="5" refX="-1" viewBox="0 0 10 10" class="marker flowchart" id="flowchart-circleStart"><circle style="stroke-width: 1; stroke-dasharray: 1, 0;" class="arrowMarkerPath" r="5" cy="5" cx="5"/></marker><marker orient="auto" markerHeight="11" markerWidth="11" markerUnits="userSpaceOnUse" refY="5.2" refX="12" viewBox="0 0 11 11" class="marker cross flowchart" id="flowchart-crossEnd"><path style="stroke-width: 2; stroke-dasharray: 1, 0;" class="arrowMarkerPath" d="M 1,1 l 9,9 M 10,1 l -9,9"/></marker><marker orient="auto" markerHeight="11" markerWidth="11" markerUnits="userSpaceOnUse" refY="5.2" refX="-1" viewBox="0 0 11 11" class="marker cross flowchart" id="flowchart-crossStart"><path style="stroke-width: 2; stroke-dasharray: 1, 0;" class="arrowMarkerPath" d="M 1,1 l 9,9 M 10,1 l -9,9"/></marker><g class="root"><g class="clusters"/><g class="edgePaths"/><g class="edgeLabels"/><g class="nodes"><g transform="translate(-7.5, -8)" class="root"><g class="clusters"><g id="invis1" class="cluster default flowchart-label"><rect height="579.1365242004395" width="772.90625" y="8" x="8" ry="0" rx="0" style="fill:#FFFFFF;stroke:#FFFFFF;"/><g transform="translate(394.453125, 8)" class="cluster-label"><text style="fill:#FFFFFF;"><tspan class="row" x="0" dy="1em" xml:space="preserve">invis1</tspan></text></g></g><g id="IDSA" class="cluster default flowchart-label"><rect height="83.5" width="191.4453125" y="245.63652420043945" x="73.521484375" ry="0" rx="0" style="fill:#bacbc6;"/><g transform="translate(169.244140625, 245.63652420043945)" class="cluster-label"><text style=""><tspan class="row" x="0" dy="1em" xml:space="preserve">IDSA</tspan></text></g></g><g id="All-cause" class="cluster default flowchart-label"><rect height="83.5" width="191.4453125" y="245.63652420043945" x="449.974609375" ry="0" rx="0" style="fill:#bacbc6;"/><g transform="translate(545.697265625, 245.63652420043945)" class="cluster-label"><text style=""><tspan class="row" x="0" dy="1em" xml:space="preserve">All-cause</tspan></text></g></g><g id="attrib" class="cluster default flowchart-label"><rect height="83.5" width="191.4453125" y="478.63652420043945" x="407.11328125" ry="0" rx="0" style="fill:#bacbc6;"/><g transform="translate(502.8359375, 478.63652420043945)" class="cluster-label"><text style=""><tspan class="row" x="0" dy="1em" xml:space="preserve">Attrib</tspan></text></g></g></g><g class="edgePaths"><path marker-end="url(#flowchart-pointEnd)" style="fill:none;" class="edge-thickness-normal edge-pattern-solid flowchart-link LS-idsa_lab LE-yes_idsa" id="L-idsa_lab-yes_idsa-0" d="M149.38405896670855,196.13652420043945L145.71099965975714,200.2198575337728C142.0379403528057,204.3031908671061,134.69182173890286,212.4698575337728,131.01876243195144,220.7198575337728C127.345703125,228.9698575337728,127.345703125,237.3031908671061,127.345703125,245.63652420043945C127.345703125,253.9698575337728,127.345703125,262.30319086710614,127.345703125,266.46985753377277L127.345703125,270.63652420043945"/><path marker-end="url(#flowchart-pointEnd)" style="fill:none;" class="edge-thickness-normal edge-pattern-solid flowchart-link LS-idsa_lab LE-no_idsa" id="L-idsa_lab-no_idsa-0" d="M192.03000353329145,196.13652420043945L195.5363961735762,200.2198575337728C199.04278881386097,204.3031908671061,206.05557409443045,212.4698575337728,209.56196673471524,220.7198575337728C213.068359375,228.9698575337728,213.068359375,237.3031908671061,213.068359375,245.63652420043945C213.068359375,253.9698575337728,213.068359375,262.30319086710614,213.068359375,266.46985753377277L213.068359375,270.63652420043945"/><path marker-end="url(#flowchart-pointEnd)" style="fill:none;" class="edge-thickness-normal edge-pattern-solid flowchart-link LS-unattrib LE-yes_un" id="L-unattrib-yes_un-0" d="M525.8371839667085,196.13652420043945L522.164124659757,200.2198575337728C518.4910653528057,204.3031908671061,511.1449467389028,212.4698575337728,507.4718874319514,220.7198575337728C503.798828125,228.9698575337728,503.798828125,237.3031908671061,503.798828125,245.63652420043945C503.798828125,253.9698575337728,503.798828125,262.30319086710614,503.798828125,266.46985753377277L503.798828125,270.63652420043945"/><path marker-end="url(#flowchart-pointEnd)" style="fill:none;" class="edge-thickness-normal edge-pattern-solid flowchart-link LS-unattrib LE-no_un" id="L-unattrib-no_un-0" d="M568.4831285332915,196.13652420043945L571.9895211735762,200.2198575337728C575.495913813861,204.3031908671061,582.5086990944305,212.4698575337728,586.0150917347153,220.7198575337728C589.521484375,228.9698575337728,589.521484375,237.3031908671061,589.521484375,245.63652420043945C589.521484375,253.9698575337728,589.521484375,262.30319086710614,589.521484375,266.46985753377277L589.521484375,270.63652420043945"/><path marker-end="url(#flowchart-pointEnd)" style="fill:none;" class="edge-thickness-normal edge-pattern-solid flowchart-link LS-chart LE-yes_at" id="L-chart-yes_at-0" d="M482.97585584170855,429.13652420043945L479.30279653475714,433.21985753377277C475.6297372278057,437.30319086710614,468.2836186139029,445.46985753377277,464.6105593069514,453.71985753377277C460.9375,461.96985753377277,460.9375,470.30319086710614,460.9375,478.63652420043945C460.9375,486.96985753377277,460.9375,495.30319086710614,460.9375,499.46985753377277L460.9375,503.63652420043945"/><path marker-end="url(#flowchart-pointEnd)" style="fill:none;" class="edge-thickness-normal edge-pattern-solid flowchart-link LS-chart LE-no_at" id="L-chart-no_at-0" d="M525.6218004082915,429.13652420043945L529.1281930485762,433.21985753377277C532.634585688861,437.30319086710614,539.6473709694305,445.46985753377277,543.1537636097153,453.71985753377277C546.66015625,461.96985753377277,546.66015625,470.30319086710614,546.66015625,478.63652420043945C546.66015625,486.96985753377277,546.66015625,495.30319086710614,546.66015625,499.46985753377277L546.66015625,503.63652420043945"/><path marker-end="url(#flowchart-pointEnd)" style="fill:none;" class="edge-thickness-normal edge-pattern-solid flowchart-link LS-cases LE-unattrib" id="L-cases-unattrib-0" d="M399.265625,76.83962813461969L423.8313802083333,84.22244414558965C448.3971354166667,91.60526015655961,497.5286458333333,106.37089217849955,522.177734375,118.00370818946949C546.8268229166666,129.63652420043945,546.9934895833334,138.13652420043945,547.0768229166666,142.38652420043945L547.16015625,146.63652420043945"/><path marker-end="url(#flowchart-pointEnd)" style="fill:none;" class="edge-thickness-normal edge-pattern-solid flowchart-link LS-cases LE-idsa_lab" id="L-cases-idsa_lab-0" d="M317.6015625,76.83962813461969L293.0358072916667,84.22244414558965C268.4700520833333,91.60526015655961,219.33854166666666,106.37089217849955,194.85611979166666,118.00370818946949C170.37369791666666,129.63652420043945,170.54036458333334,138.13652420043945,170.62369791666666,142.38652420043945L170.70703125,146.63652420043945"/><path marker-end="url(#flowchart-pointEnd)" style="fill:none;" class="edge-thickness-normal edge-pattern-solid flowchart-link LS-All-cause LE-chart" id="L-All-cause-chart-0" d="M503.798828125,329.13652420043945L503.798828125,333.30319086710614C503.798828125,337.46985753377277,503.798828125,345.80319086710614,503.8821614583333,354.21985753377277C503.9654947916667,362.63652420043945,504.1321614583333,371.13652420043945,504.2154947916667,375.38652420043945L504.298828125,379.63652420043945"/></g><g class="edgeLabels"><g class="edgeLabel"><g transform="translate(0, 0)" class="label"><rect height="0" width="0" ry="0" rx="0"/><text style=""><tspan class="row" x="0" dy="1em" xml:space="preserve"/></text></g></g><g class="edgeLabel"><g transform="translate(0, 0)" class="label"><rect height="0" width="0" ry="0" rx="0"/><text style=""><tspan class="row" x="0" dy="1em" xml:space="preserve"/></text></g></g><g class="edgeLabel"><g transform="translate(0, 0)" class="label"><rect height="0" width="0" ry="0" rx="0"/><text style=""><tspan class="row" x="0" dy="1em" xml:space="preserve"/></text></g></g><g class="edgeLabel"><g transform="translate(0, 0)" class="label"><rect height="0" width="0" ry="0" rx="0"/><text style=""><tspan class="row" x="0" dy="1em" xml:space="preserve"/></text></g></g><g class="edgeLabel"><g transform="translate(0, 0)" class="label"><rect height="0" width="0" ry="0" rx="0"/><text style=""><tspan class="row" x="0" dy="1em" xml:space="preserve"/></text></g></g><g class="edgeLabel"><g transform="translate(0, 0)" class="label"><rect height="0" width="0" ry="0" rx="0"/><text style=""><tspan class="row" x="0" dy="1em" xml:space="preserve"/></text></g></g><g class="edgeLabel"><g transform="translate(0, 0)" class="label"><rect height="0" width="0" ry="0" rx="0"/><text style=""><tspan class="row" x="0" dy="1em" xml:space="preserve"/></text></g></g><g class="edgeLabel"><g transform="translate(0, 0)" class="label"><rect height="0" width="0" ry="0" rx="0"/><text style=""><tspan class="row" x="0" dy="1em" xml:space="preserve"/></text></g></g><g class="edgeLabel"><g transform="translate(0, 0)" class="label"><rect height="0" width="0" ry="0" rx="0"/><text style=""><tspan class="row" x="0" dy="1em" xml:space="preserve"/></text></g></g></g><g class="nodes"><g transform="translate(358.43359375, 64.56826210021973)" id="flowchart-cases-64" class="node default default flowchart-label"><path transform="translate(-40.83203125,-31.568262578913547)" d="M 0,9.878841719275698 a 40.83203125,9.878841719275698 0,0,0 81.6640625 0 a 40.83203125,9.878841719275698 0,0,0 -81.6640625 0 l 0,43.3788417192757 a 40.83203125,9.878841719275698 0,0,0 81.6640625 0 l 0,-43.3788417192757" style=""/><g transform="translate(0, -9.25)" style="" class="label"><rect/><text style=""><tspan class="row" x="0" dy="1em" xml:space="preserve">CDI cases</tspan></text></g></g><g transform="translate(170.20703125, 170.88652420043945)" id="flowchart-idsa_lab-65" class="node default default flowchart-label"><polygon style="" transform="translate(-127.20703125,24.75)" class="label-container" points="12.375,0 242.0390625,0 254.4140625,-24.75 242.0390625,-49.5 12.375,-49.5 0,-24.75"/><g transform="translate(0, -17.25)" style="" class="label"><rect/><text style=""><tspan class="row" x="0" dy="1em" xml:space="preserve">Serum creatinine ≥ 1.5 mg/dL</tspan><tspan class="row" x="0" dy="1em" xml:space="preserve">&amp; WBC count ≥ 15 k/μL</tspan></text></g></g><g transform="translate(127.345703125, 287.38652420043945)" id="flowchart-yes_idsa-67" class="node default outcome flowchart-label"><rect height="33.5" width="37.6484375" y="-16.75" x="-18.82421875" ry="0" rx="0" style="" class="basic label-container"/><g transform="translate(0, -9.25)" style="" class="label"><rect/><text style=""><tspan class="row" x="0" dy="1em" xml:space="preserve">Yes</tspan></text></g></g><g transform="translate(213.068359375, 287.38652420043945)" id="flowchart-no_idsa-69" class="node default outcome flowchart-label"><rect height="33.5" width="33.796875" y="-16.75" x="-16.8984375" ry="0" rx="0" style="" class="basic label-container"/><g transform="translate(0, -9.25)" style="" class="label"><rect/><text style=""><tspan class="row" x="0" dy="1em" xml:space="preserve">No</tspan></text></g></g><g transform="translate(546.66015625, 170.88652420043945)" id="flowchart-unattrib-72" class="node default default flowchart-label"><polygon style="" transform="translate(-199.24609375,24.75)" class="label-container" points="12.375,0 386.1171875,0 398.4921875,-24.75 386.1171875,-49.5 12.375,-49.5 0,-24.75"/><g transform="translate(0, -17.25)" style="" class="label"><rect/><text style=""><tspan class="row" x="0" dy="1em" xml:space="preserve">One of 3 adverse outcomes occurs within 30 days:</tspan><tspan class="row" x="0" dy="1em" xml:space="preserve">ICU admission, colectomy, or death</tspan></text></g></g><g transform="translate(503.798828125, 287.38652420043945)" id="flowchart-yes_un-74" class="node default outcome flowchart-label"><rect height="33.5" width="37.6484375" y="-16.75" x="-18.82421875" ry="0" rx="0" style="" class="basic label-container"/><g transform="translate(0, -9.25)" style="" class="label"><rect/><text style=""><tspan class="row" x="0" dy="1em" xml:space="preserve">Yes</tspan></text></g></g><g transform="translate(589.521484375, 287.38652420043945)" id="flowchart-no_un-76" class="node default outcome flowchart-label"><rect height="33.5" width="33.796875" y="-16.75" x="-16.8984375" ry="0" rx="0" style="" class="basic label-container"/><g transform="translate(0, -9.25)" style="" class="label"><rect/><text style=""><tspan class="row" x="0" dy="1em" xml:space="preserve">No</tspan></text></g></g><g transform="translate(503.798828125, 403.88652420043945)" id="flowchart-chart-80" class="node default default flowchart-label"><polygon style="" transform="translate(-195.40234375,24.75)" class="label-container" points="12.375,0 378.4296875,0 390.8046875,-24.75 378.4296875,-49.5 12.375,-49.5 0,-24.75"/><g transform="translate(0, -17.25)" style="" class="label"><rect/><text style=""><tspan class="row" x="0" dy="1em" xml:space="preserve">physician chart review:</tspan><tspan class="row" x="0" dy="1em" xml:space="preserve">the adverse outcome was attributable to the CDI</tspan></text></g></g><g transform="translate(460.9375, 520.3865242004395)" id="flowchart-yes_at-83" class="node default outcome flowchart-label"><rect height="33.5" width="37.6484375" y="-16.75" x="-18.82421875" ry="0" rx="0" style="" class="basic label-container"/><g transform="translate(0, -9.25)" style="" class="label"><rect/><text style=""><tspan class="row" x="0" dy="1em" xml:space="preserve">Yes</tspan></text></g></g><g transform="translate(546.66015625, 520.3865242004395)" id="flowchart-no_at-85" class="node default outcome flowchart-label"><rect height="33.5" width="33.796875" y="-16.75" x="-16.8984375" ry="0" rx="0" style="" class="basic label-container"/><g transform="translate(0, -9.25)" style="" class="label"><rect/><text style=""><tspan class="row" x="0" dy="1em" xml:space="preserve">No</tspan></text></g></g></g></g></g></g></g></svg>