<svg aria-roledescription="flowchart-v2" role="graphics-document document" viewBox="-7.5 -8 785.712890625 596.6499633789062" style="max-width: 785.713px; background-color: white;" xmlns:xlink="http://www.w3.org/1999/xlink" xmlns="http://www.w3.org/2000/svg" width="100%" id="mermaid-1683916461285"><style>#mermaid-1683916461285{font-family:Helvetica;font-size:16px;fill:#333;}#mermaid-1683916461285 .error-icon{fill:#552222;}#mermaid-1683916461285 .error-text{fill:#552222;stroke:#552222;}#mermaid-1683916461285 .edge-thickness-normal{stroke-width:2px;}#mermaid-1683916461285 .edge-thickness-thick{stroke-width:3.5px;}#mermaid-1683916461285 .edge-pattern-solid{stroke-dasharray:0;}#mermaid-1683916461285 .edge-pattern-dashed{stroke-dasharray:3;}#mermaid-1683916461285 .edge-pattern-dotted{stroke-dasharray:2;}#mermaid-1683916461285 .marker{fill:#333333;stroke:#333333;}#mermaid-1683916461285 .marker.cross{stroke:#333333;}#mermaid-1683916461285 svg{font-family:Helvetica;font-size:16px;}#mermaid-1683916461285 .label{font-family:Helvetica;color:#333;}#mermaid-1683916461285 .cluster-label text{fill:#333;}#mermaid-1683916461285 .cluster-label span,#mermaid-1683916461285 p{color:#333;}#mermaid-1683916461285 .label text,#mermaid-1683916461285 span,#mermaid-1683916461285 p{fill:#333;color:#333;}#mermaid-1683916461285 .node rect,#mermaid-1683916461285 .node circle,#mermaid-1683916461285 .node ellipse,#mermaid-1683916461285 .node polygon,#mermaid-1683916461285 .node path{fill:#ECECFF;stroke:#9370DB;stroke-width:1px;}#mermaid-1683916461285 .flowchart-label text{text-anchor:middle;}#mermaid-1683916461285 .node .label{text-align:center;}#mermaid-1683916461285 .node.clickable{cursor:pointer;}#mermaid-1683916461285 .arrowheadPath{fill:#333333;}#mermaid-1683916461285 .edgePath .path{stroke:#333333;stroke-width:2.0px;}#mermaid-1683916461285 .flowchart-link{stroke:#333333;fill:none;}#mermaid-1683916461285 .edgeLabel{background-color:#e8e8e8;text-align:center;}#mermaid-1683916461285 .edgeLabel rect{opacity:0.5;background-color:#e8e8e8;fill:#e8e8e8;}#mermaid-1683916461285 .cluster rect{fill:#ffffde;stroke:#aaaa33;stroke-width:1px;}#mermaid-1683916461285 .cluster text{fill:#333;}#mermaid-1683916461285 .cluster span,#mermaid-1683916461285 p{color:#333;}#mermaid-1683916461285 div.mermaidTooltip{position:absolute;text-align:center;max-width:200px;padding:2px;font-family:Helvetica;font-size:12px;background:hsl(80, 100%, 96.2745098039%);border:1px solid #aaaa33;border-radius:2px;pointer-events:none;z-index:100;}#mermaid-1683916461285 .flowchartTitleText{text-anchor:middle;font-size:18px;fill:#333;}#mermaid-1683916461285 :root{--mermaid-font-family:"trebuchet ms",verdana,arial,sans-serif;}#mermaid-1683916461285 .outcome_yes rect{fill:#F7FBFF!important;stroke:#860967!important;}#mermaid-1683916461285 .outcome_yes polygon{fill:#F7FBFF!important;stroke:#860967!important;}#mermaid-1683916461285 .outcome_yes ellipse{fill:#F7FBFF!important;stroke:#860967!important;}#mermaid-1683916461285 .outcome_yes circle{fill:#F7FBFF!important;stroke:#860967!important;}#mermaid-1683916461285 .outcome_yes path{fill:#F7FBFF!important;stroke:#860967!important;}#mermaid-1683916461285 .outcome_no rect{fill:#F7FBFF!important;stroke:#0F2A4B!important;}#mermaid-1683916461285 .outcome_no polygon{fill:#F7FBFF!important;stroke:#0F2A4B!important;}#mermaid-1683916461285 .outcome_no ellipse{fill:#F7FBFF!important;stroke:#0F2A4B!important;}#mermaid-1683916461285 .outcome_no circle{fill:#F7FBFF!important;stroke:#0F2A4B!important;}#mermaid-1683916461285 .outcome_no path{fill:#F7FBFF!important;stroke:#0F2A4B!important;}#mermaid-1683916461285 .decision rect{fill:#FFFFFF!important;stroke:#000000!important;}#mermaid-1683916461285 .decision polygon{fill:#FFFFFF!important;stroke:#000000!important;}#mermaid-1683916461285 .decision ellipse{fill:#FFFFFF!important;stroke:#000000!important;}#mermaid-1683916461285 .decision circle{fill:#FFFFFF!important;stroke:#000000!important;}#mermaid-1683916461285 .decision path{fill:#FFFFFF!important;stroke:#000000!important;}</style><g><marker orient="auto" markerHeight="12" markerWidth="12" markerUnits="userSpaceOnUse" refY="5" refX="10" viewBox="0 0 12 20" class="marker flowchart" id="flowchart-pointEnd"><path style="stroke-width: 1; stroke-dasharray: 1, 0;" class="arrowMarkerPath" d="M 0 0 L 10 5 L 0 10 z"/></marker><marker orient="auto" markerHeight="12" markerWidth="12" markerUnits="userSpaceOnUse" refY="5" refX="0" viewBox="0 0 10 10" class="marker flowchart" id="flowchart-pointStart"><path style="stroke-width: 1; stroke-dasharray: 1, 0;" class="arrowMarkerPath" d="M 0 5 L 10 10 L 10 0 z"/></marker><marker orient="auto" markerHeight="11" markerWidth="11" markerUnits="userSpaceOnUse" refY="5" refX="11" viewBox="0 0 10 10" class="marker flowchart" id="flowchart-circleEnd"><circle style="stroke-width: 1; stroke-dasharray: 1, 0;" class="arrowMarkerPath" r="5" cy="5" cx="5"/></marker><marker orient="auto" markerHeight="11" markerWidth="11" markerUnits="userSpaceOnUse" refY="5" refX="-1" viewBox="0 0 10 10" class="marker flowchart" id="flowchart-circleStart"><circle style="stroke-width: 1; stroke-dasharray: 1, 0;" class="arrowMarkerPath" r="5" cy="5" cx="5"/></marker><marker orient="auto" markerHeight="11" markerWidth="11" markerUnits="userSpaceOnUse" refY="5.2" refX="12" viewBox="0 0 11 11" class="marker cross flowchart" id="flowchart-crossEnd"><path style="stroke-width: 2; stroke-dasharray: 1, 0;" class="arrowMarkerPath" d="M 1,1 l 9,9 M 10,1 l -9,9"/></marker><marker orient="auto" markerHeight="11" markerWidth="11" markerUnits="userSpaceOnUse" refY="5.2" refX="-1" viewBox="0 0 11 11" class="marker cross flowchart" id="flowchart-crossStart"><path style="stroke-width: 2; stroke-dasharray: 1, 0;" class="arrowMarkerPath" d="M 1,1 l 9,9 M 10,1 l -9,9"/></marker><g class="root"><g class="clusters"/><g class="edgePaths"/><g class="edgeLabels"/><g class="nodes"><g transform="translate(-7.5, -8)" class="root"><g class="clusters"><g id="invis1" class="cluster default flowchart-label"><rect height="580.6499633789062" width="769.712890625" y="8" x="8" ry="0" rx="0" style="fill:#FFFFFF;stroke:#FFFFFF;"/><g transform="translate(392.8564453125, 8)" class="cluster-label"><text style="fill:#FFFFFF;"><tspan class="row" x="0" dy="1em" xml:space="preserve">invis1</tspan></text></g></g><g id="IDSA" class="cluster default flowchart-label"><rect height="83.5" width="196.5546875" y="247.14996337890625" x="70.10546875" ry="0" rx="0" style="fill:#CCCCCC;stroke:#FFFFFF;"/><g transform="translate(168.3828125, 247.14996337890625)" class="cluster-label"><text style=""><tspan class="row" x="0" dy="1em" xml:space="preserve">IDSA</tspan></text></g></g><g id="All-cause" class="cluster default flowchart-label"><rect height="83.5" width="196.5546875" y="247.14996337890625" x="443.9453125" ry="0" rx="0" style="fill:#CCCCCC;stroke:#FFFFFF;"/><g transform="translate(542.22265625, 247.14996337890625)" class="cluster-label"><text style=""><tspan class="row" x="0" dy="1em" xml:space="preserve">All-cause</tspan></text></g></g><g id="attrib" class="cluster default flowchart-label"><rect height="83.5" width="196.5546875" y="480.14996337890625" x="399.806640625" ry="0" rx="0" style="fill:#CCCCCC;stroke:#FFFFFF;"/><g transform="translate(498.083984375, 480.14996337890625)" class="cluster-label"><text style=""><tspan class="row" x="0" dy="1em" xml:space="preserve">Attrib</tspan></text></g></g></g><g class="edgePaths"><path marker-end="url(#flowchart-pointEnd)" style="fill:none;" class="edge-thickness-normal edge-pattern-solid flowchart-link LS-idsa_lab LE-yes_idsa" id="L-idsa_lab-yes_idsa-0" d="M148.33648712311557,197.64996337890625L144.5564476025963,201.7332967122396C140.77640808207704,205.8166300455729,133.21632904103853,213.9832967122396,129.43628952051927,222.2332967122396C125.65625,230.4832967122396,125.65625,238.8166300455729,125.65625,247.14996337890625C125.65625,255.4832967122396,125.65625,263.81663004557294,125.65625,267.98329671223956L125.65625,272.14996337890625"/><path marker-end="url(#flowchart-pointEnd)" style="fill:none;" class="edge-thickness-normal edge-pattern-solid flowchart-link LS-idsa_lab LE-no_idsa" id="L-idsa_lab-no_idsa-0" d="M192.25335662688443,197.64996337890625L195.866729480737,201.7332967122396C199.4801023345896,205.8166300455729,206.7068480422948,213.9832967122396,210.3202208961474,222.2332967122396C213.93359375,230.4832967122396,213.93359375,238.8166300455729,213.93359375,247.14996337890625C213.93359375,255.4832967122396,213.93359375,263.81663004557294,213.93359375,267.98329671223956L213.93359375,272.14996337890625"/><path marker-end="url(#flowchart-pointEnd)" style="fill:none;" class="edge-thickness-normal edge-pattern-solid flowchart-link LS-unattrib LE-yes_un" id="L-unattrib-yes_un-0" d="M522.1763308731156,197.64996337890625L518.3962913525963,201.7332967122396C514.6162518320771,205.8166300455729,507.05617279103853,213.9832967122396,503.27613327051927,222.2332967122396C499.49609375,230.4832967122396,499.49609375,238.8166300455729,499.49609375,247.14996337890625C499.49609375,255.4832967122396,499.49609375,263.81663004557294,499.49609375,267.98329671223956L499.49609375,272.14996337890625"/><path marker-end="url(#flowchart-pointEnd)" style="fill:none;" class="edge-thickness-normal edge-pattern-solid flowchart-link LS-unattrib LE-no_un" id="L-unattrib-no_un-0" d="M566.0932003768844,197.64996337890625L569.706573230737,201.7332967122396C573.3199460845896,205.8166300455729,580.5466917922948,213.9832967122396,584.1600646461474,222.2332967122396C587.7734375,230.4832967122396,587.7734375,238.8166300455729,587.7734375,247.14996337890625C587.7734375,255.4832967122396,587.7734375,263.81663004557294,587.7734375,267.98329671223956L587.7734375,272.14996337890625"/><path marker-end="url(#flowchart-pointEnd)" style="fill:none;" class="edge-thickness-normal edge-pattern-solid flowchart-link LS-chart LE-yes_at" id="L-chart-yes_at-0" d="M478.0376589981156,430.64996337890625L474.25761947759634,434.73329671223956C470.47757995707707,438.81663004557294,462.91750091603853,446.98329671223956,459.13746139551927,455.23329671223956C455.357421875,463.48329671223956,455.357421875,471.81663004557294,455.357421875,480.14996337890625C455.357421875,488.48329671223956,455.357421875,496.81663004557294,455.357421875,500.98329671223956L455.357421875,505.14996337890625"/><path marker-end="url(#flowchart-pointEnd)" style="fill:none;" class="edge-thickness-normal edge-pattern-solid flowchart-link LS-chart LE-no_at" id="L-chart-no_at-0" d="M521.9545285018844,430.64996337890625L525.567901355737,434.73329671223956C529.1812742095896,438.81663004557294,536.4080199172948,446.98329671223956,540.0213927711474,455.23329671223956C543.634765625,463.48329671223956,543.634765625,471.81663004557294,543.634765625,480.14996337890625C543.634765625,488.48329671223956,543.634765625,496.81663004557294,543.634765625,500.98329671223956L543.634765625,505.14996337890625"/><path marker-end="url(#flowchart-pointEnd)" style="fill:none;" class="edge-thickness-normal edge-pattern-solid flowchart-link LS-cases LE-unattrib" id="L-cases-unattrib-0" d="M401.11328125,78.94118477362655L424.8668619791667,86.22598120783982C448.6204427083333,93.51077764205313,496.1276041666667,108.08037051047968,519.9645182291666,119.61516694469297C543.8014322916666,131.14996337890625,543.9680989583334,139.64996337890625,544.0514322916666,143.89996337890625L544.134765625,148.14996337890625"/><path marker-end="url(#flowchart-pointEnd)" style="fill:none;" class="edge-thickness-normal edge-pattern-solid flowchart-link LS-cases LE-idsa_lab" id="L-cases-idsa_lab-0" d="M312.31640625,78.94118477362655L288.5628255208333,86.22598120783982C264.8092447916667,93.51077764205313,217.30208333333334,108.08037051047968,193.6318359375,119.61516694469297C169.96158854166666,131.14996337890625,170.12825520833334,139.64996337890625,170.21158854166666,143.89996337890625L170.294921875,148.14996337890625"/><path marker-end="url(#flowchart-pointEnd)" style="fill:none;" class="edge-thickness-normal edge-pattern-solid flowchart-link LS-All-cause LE-chart" id="L-All-cause-chart-0" d="M499.49609375,330.64996337890625L499.49609375,334.81663004557294C499.49609375,338.98329671223956,499.49609375,347.31663004557294,499.5794270833333,355.73329671223956C499.6627604166667,364.14996337890625,499.8294270833333,372.64996337890625,499.9127604166667,376.89996337890625L499.99609375,381.14996337890625"/></g><g class="edgeLabels"><g class="edgeLabel"><g transform="translate(0, 0)" class="label"><rect height="0" width="0" ry="0" rx="0"/><text style=""><tspan class="row" x="0" dy="1em" xml:space="preserve"/></text></g></g><g class="edgeLabel"><g transform="translate(0, 0)" class="label"><rect height="0" width="0" ry="0" rx="0"/><text style=""><tspan class="row" x="0" dy="1em" xml:space="preserve"/></text></g></g><g class="edgeLabel"><g transform="translate(0, 0)" class="label"><rect height="0" width="0" ry="0" rx="0"/><text style=""><tspan class="row" x="0" dy="1em" xml:space="preserve"/></text></g></g><g class="edgeLabel"><g transform="translate(0, 0)" class="label"><rect height="0" width="0" ry="0" rx="0"/><text style=""><tspan class="row" x="0" dy="1em" xml:space="preserve"/></text></g></g><g class="edgeLabel"><g transform="translate(0, 0)" class="label"><rect height="0" width="0" ry="0" rx="0"/><text style=""><tspan class="row" x="0" dy="1em" xml:space="preserve"/></text></g></g><g class="edgeLabel"><g transform="translate(0, 0)" class="label"><rect height="0" width="0" ry="0" rx="0"/><text style=""><tspan class="row" x="0" dy="1em" xml:space="preserve"/></text></g></g><g class="edgeLabel"><g transform="translate(0, 0)" class="label"><rect height="0" width="0" ry="0" rx="0"/><text style=""><tspan class="row" x="0" dy="1em" xml:space="preserve"/></text></g></g><g class="edgeLabel"><g transform="translate(0, 0)" class="label"><rect height="0" width="0" ry="0" rx="0"/><text style=""><tspan class="row" x="0" dy="1em" xml:space="preserve"/></text></g></g><g class="edgeLabel"><g transform="translate(0, 0)" class="label"><rect height="0" width="0" ry="0" rx="0"/><text style=""><tspan class="row" x="0" dy="1em" xml:space="preserve"/></text></g></g></g><g class="nodes"><g transform="translate(356.71484375, 65.32498168945312)" id="flowchart-cases-64" class="node default decision flowchart-label"><path transform="translate(-44.3984375,-32.32498355623767)" d="M 0,10.383322370825113 a 44.3984375,10.383322370825113 0,0,0 88.796875 0 a 44.3984375,10.383322370825113 0,0,0 -88.796875 0 l 0,43.88332237082511 a 44.3984375,10.383322370825113 0,0,0 88.796875 0 l 0,-43.88332237082511" style=""/><g transform="translate(0, -9.25)" style="" class="label"><rect/><text style=""><tspan class="row" x="0" dy="1em" xml:space="preserve">CDI cases</tspan></text></g></g><g transform="translate(169.794921875, 172.39996337890625)" id="flowchart-idsa_lab-65" class="node default decision flowchart-label"><polygon style="" transform="translate(-124.76171875,24.75)" class="label-container" points="12.375,0 237.1484375,0 249.5234375,-24.75 237.1484375,-49.5 12.375,-49.5 0,-24.75"/><g transform="translate(0, -17.25)" style="" class="label"><rect/><text style=""><tspan class="row" x="0" dy="1em" xml:space="preserve">Serum creatinine ≥ 1.5 mg/dL</tspan><tspan class="row" x="0" dy="1em" xml:space="preserve">&amp; WBC count ≥ 15 k/μL</tspan></text></g></g><g transform="translate(125.65625, 288.89996337890625)" id="flowchart-yes_idsa-67" class="node default outcome_yes flowchart-label"><rect height="33.5" width="41.1015625" y="-16.75" x="-20.55078125" ry="0" rx="0" style="" class="basic label-container"/><g transform="translate(0, -9.25)" style="" class="label"><rect/><text style=""><tspan class="row" x="0" dy="1em" xml:space="preserve">Yes</tspan></text></g></g><g transform="translate(213.93359375, 288.89996337890625)" id="flowchart-no_idsa-69" class="node default outcome_no flowchart-label"><rect height="33.5" width="35.453125" y="-16.75" x="-17.7265625" ry="0" rx="0" style="" class="basic label-container"/><g transform="translate(0, -9.25)" style="" class="label"><rect/><text style=""><tspan class="row" x="0" dy="1em" xml:space="preserve">No</tspan></text></g></g><g transform="translate(543.634765625, 172.39996337890625)" id="flowchart-unattrib-72" class="node default decision flowchart-label"><polygon style="" transform="translate(-199.078125,24.75)" class="label-container" points="12.375,0 385.78125,0 398.15625,-24.75 385.78125,-49.5 12.375,-49.5 0,-24.75"/><g transform="translate(0, -17.25)" style="" class="label"><rect/><text style=""><tspan class="row" x="0" dy="1em" xml:space="preserve">One of 3 adverse outcomes occurs within 30 days:</tspan><tspan class="row" x="0" dy="1em" xml:space="preserve">ICU admission, colectomy, or death</tspan></text></g></g><g transform="translate(499.49609375, 288.89996337890625)" id="flowchart-yes_un-74" class="node default outcome_yes flowchart-label"><rect height="33.5" width="41.1015625" y="-16.75" x="-20.55078125" ry="0" rx="0" style="" class="basic label-container"/><g transform="translate(0, -9.25)" style="" class="label"><rect/><text style=""><tspan class="row" x="0" dy="1em" xml:space="preserve">Yes</tspan></text></g></g><g transform="translate(587.7734375, 288.89996337890625)" id="flowchart-no_un-76" class="node default outcome_no flowchart-label"><rect height="33.5" width="35.453125" y="-16.75" x="-17.7265625" ry="0" rx="0" style="" class="basic label-container"/><g transform="translate(0, -9.25)" style="" class="label"><rect/><text style=""><tspan class="row" x="0" dy="1em" xml:space="preserve">No</tspan></text></g></g><g transform="translate(499.49609375, 405.39996337890625)" id="flowchart-chart-80" class="node default decision flowchart-label"><polygon style="" transform="translate(-191.078125,24.75)" class="label-container" points="12.375,0 369.78125,0 382.15625,-24.75 369.78125,-49.5 12.375,-49.5 0,-24.75"/><g transform="translate(0, -17.25)" style="" class="label"><rect/><text style=""><tspan class="row" x="0" dy="1em" xml:space="preserve">physician chart review:</tspan><tspan class="row" x="0" dy="1em" xml:space="preserve">the adverse outcome was attributable to the CDI</tspan></text></g></g><g transform="translate(455.357421875, 521.8999633789062)" id="flowchart-yes_at-83" class="node default outcome_yes flowchart-label"><rect height="33.5" width="41.1015625" y="-16.75" x="-20.55078125" ry="0" rx="0" style="" class="basic label-container"/><g transform="translate(0, -9.25)" style="" class="label"><rect/><text style=""><tspan class="row" x="0" dy="1em" xml:space="preserve">Yes</tspan></text></g></g><g transform="translate(543.634765625, 521.8999633789062)" id="flowchart-no_at-85" class="node default outcome_no flowchart-label"><rect height="33.5" width="35.453125" y="-16.75" x="-17.7265625" ry="0" rx="0" style="" class="basic label-container"/><g transform="translate(0, -9.25)" style="" class="label"><rect/><text style=""><tspan class="row" x="0" dy="1em" xml:space="preserve">No</tspan></text></g></g></g></g></g></g></g></svg>